# xmcd
#
# Track frame offsets: 
#        150
#        12487
#        26532
#        38567
#        49472
#        60889
#        72950
#        87085
#        99982
#        113379
#
# Disc length: 1708 seconds
#
# Revision: 0
# Processed by: cddbd v1.5PL3 Copyright (c) Steve Scherf et al.
# Submitted via: ExactAudioCopy v0.90b4
#
DISCID=6f06aa0a
DTITLE=Glen Campbell - Rhinestone Cowboy
DYEAR=2001
DGENRE=Country
TTITLE0=By the Time I get to Phoenix
TTITLE1=Wichita Lineman
TTITLE2=Galveston
TTITLE3=It's Only Make Believe
TTITLE4=Dream Baby
TTITLE5=Manhatten Kansas
TTITLE6=Country Boy
TTITLE7=Subflower
TTITLE8=Southern Nights
TTITLE9=Rhinestone Cowboy
EXTD=
EXTT0=
EXTT1=
EXTT2=
EXTT3=
EXTT4=
EXTT5=
EXTT6=
EXTT7=
EXTT8=
EXTT9=
PLAYORDER=
